<?xml version="1.0" encoding="UTF-8" standalone="no"?>
<!DOCTYPE svg PUBLIC "-//W3C//DTD SVG 1.1//EN" "http://www.w3.org/Graphics/SVG/1.1/DTD/svg11.dtd">
<svg width="100%" height="100%" viewBox="0 0 128 128" version="1.1" xmlns="http://www.w3.org/2000/svg" xmlns:xlink="http://www.w3.org/1999/xlink" xml:space="preserve" xmlns:serif="http://www.serif.com/" style="fill-rule:evenodd;clip-rule:evenodd;stroke-linejoin:round;stroke-miterlimit:2;">
    <g id="shop" transform="matrix(1.03533,0,0,1.03533,-661.487,-429.054)">
        <g transform="matrix(1,0,0,1,-439.482,-124.401)">
            <path d="M1084.81,548.112L1108.14,548.112C1108.14,548.112 1112.07,547.325 1113.12,552.568C1114.16,557.811 1115.74,568.559 1115.74,568.559L1195.17,568.559C1195.17,568.559 1202.25,568.297 1200.93,574.326C1199.62,580.355 1190.19,611.026 1190.19,611.026C1190.19,611.026 1190.45,614.958 1184.16,614.958C1177.87,614.958 1123.87,614.172 1123.87,614.172L1124.65,623.609L1178.65,623.871C1178.65,623.871 1183.63,624.396 1183.63,629.901C1183.63,635.406 1179.18,634.357 1179.18,634.357L1120.72,634.357C1120.72,634.357 1115.21,634.357 1113.38,630.687C1111.54,627.017 1109.71,613.123 1109.71,613.123L1101.06,560.17L1084.81,560.432C1084.81,560.432 1079.56,559.122 1079.56,554.403C1079.56,549.684 1084.81,548.112 1084.81,548.112Z" style="fill:white;"/>
        </g>
        <path d="M732.299,513.976C736.567,513.976 740.033,517.441 740.033,521.709C740.033,525.978 736.567,529.443 732.299,529.443C728.031,529.443 724.566,525.978 724.566,521.709C724.566,517.441 728.031,513.976 732.299,513.976ZM687.473,513.976C691.741,513.976 695.206,517.441 695.206,521.709C695.206,525.978 691.741,529.443 687.473,529.443C683.205,529.443 679.739,525.978 679.739,521.709C679.739,517.441 683.205,513.976 687.473,513.976Z" style="fill:white;"/>
    </g>
</svg>
