<?xml version="1.0" encoding="UTF-8" standalone="no"?>
<!DOCTYPE svg PUBLIC "-//W3C//DTD SVG 1.1//EN" "http://www.w3.org/Graphics/SVG/1.1/DTD/svg11.dtd">
<svg width="100%" height="100%" viewBox="0 0 36 36" version="1.1" xmlns="http://www.w3.org/2000/svg" xmlns:xlink="http://www.w3.org/1999/xlink" xml:space="preserve" xmlns:serif="http://www.serif.com/" style="fill-rule:evenodd;clip-rule:evenodd;stroke-linejoin:round;stroke-miterlimit:2;">
    <path d="M17.695,0C27.461,0 35.389,7.929 35.389,17.695C35.389,27.461 27.461,35.389 17.695,35.389C7.929,35.389 0,27.461 0,17.695C0,7.929 7.929,0 17.695,0ZM12.809,12.809L7.414,12.809C6.065,12.809 4.971,13.904 4.971,15.252L4.971,20.137C4.971,21.486 6.065,22.58 7.414,22.58L12.809,22.58L12.809,27.976C12.809,29.324 13.904,30.419 15.252,30.419L20.137,30.419C21.486,30.419 22.58,29.324 22.58,27.976L22.58,22.58L27.976,22.58C29.324,22.58 30.419,21.486 30.419,20.137L30.419,15.252C30.419,13.904 29.324,12.809 27.976,12.809L22.58,12.809L22.58,7.414C22.58,6.065 21.486,4.971 20.137,4.971L15.252,4.971C13.904,4.971 12.809,6.065 12.809,7.414L12.809,12.809Z" style="fill:rgb(0,145,234);"/>
</svg>
