<?xml version="1.0" encoding="UTF-8" standalone="no"?>
<!DOCTYPE svg PUBLIC "-//W3C//DTD SVG 1.1//EN" "http://www.w3.org/Graphics/SVG/1.1/DTD/svg11.dtd">
<svg width="100%" height="100%" viewBox="0 0 73 36" version="1.1" xmlns="http://www.w3.org/2000/svg" xmlns:xlink="http://www.w3.org/1999/xlink" xml:space="preserve" xmlns:serif="http://www.serif.com/" style="fill-rule:evenodd;clip-rule:evenodd;stroke-linejoin:round;stroke-miterlimit:2;">
    <g id="EYE" transform="matrix(1,0,0,1,-1279.65,-389.319)">
        <g opacity="0.5">
            <path d="M1313.85,389.319C1330.47,389.319 1352.15,397.303 1352.15,407.137C1352.15,416.971 1330.47,424.954 1313.85,424.954C1297.24,424.954 1279.65,416.971 1279.65,407.137C1279.65,397.303 1297.24,389.319 1313.85,389.319ZM1315.9,392.303C1324.51,392.303 1331.49,398.95 1331.49,407.137C1331.49,415.324 1324.51,421.97 1315.9,421.97C1307.29,421.97 1300.31,415.324 1300.31,407.137C1300.31,398.95 1307.29,392.303 1315.9,392.303Z" style="fill:rgb(0,145,234);"/>
            <ellipse cx="1315.9" cy="407.137" rx="7.71" ry="7.334" style="fill:rgb(0,145,234);"/>
        </g>
    </g>
</svg>
