<?xml version="1.0" encoding="UTF-8" standalone="no"?>
<!DOCTYPE svg PUBLIC "-//W3C//DTD SVG 1.1//EN" "http://www.w3.org/Graphics/SVG/1.1/DTD/svg11.dtd">
<svg width="100%" height="100%" viewBox="0 0 78 59" version="1.1" xmlns="http://www.w3.org/2000/svg" xmlns:xlink="http://www.w3.org/1999/xlink" xml:space="preserve" xmlns:serif="http://www.serif.com/" style="fill-rule:evenodd;clip-rule:evenodd;stroke-linejoin:round;stroke-miterlimit:2;">
    <g id="OP-logo" transform="matrix(0.372921,0,0,0.372921,-47.731,-96.5166)">
        <g opacity="0.15">
            <g id="P-curve" transform="matrix(1,0,0,0.979223,-0.816377,8.05947)">
                <path d="M337.839,346.864L337.839,388.959C337.839,398.127 333.733,404.936 325.523,409.386C317.312,413.836 305.628,415.955 290.47,415.742C274.891,415.523 262.716,412.864 253.944,407.766C245.172,402.667 240.786,395.012 240.786,384.801L240.786,370.937L183.523,370.132L183.523,344.697L337.839,346.864ZM272.049,371.376L272.049,377.581C272.049,382.463 273.646,385.914 276.839,387.934C280.032,389.954 284.119,390.999 289.102,391.069C293.944,391.137 298.049,390.338 301.418,388.671C304.786,387.004 306.47,383.804 306.47,379.071L306.47,371.859L272.049,371.376Z" style="fill:white;fill-rule:nonzero;"/>
            </g>
            <path id="O-curve" d="M128.015,314.739C128.395,297.104 133.554,283.374 143.491,273.549C153.427,263.725 167.075,258.812 184.433,258.812C202.228,258.812 215.835,263.639 225.254,273.291C234.673,282.944 239.194,296.465 238.819,313.854C238.546,326.479 236.22,336.832 231.839,344.912C227.459,352.993 221.246,359.281 213.199,363.776C205.152,368.27 195.197,370.518 183.333,370.518C171.275,370.518 161.337,368.577 153.52,364.697C145.702,360.816 139.429,354.675 134.7,346.275C129.97,337.875 127.742,327.363 128.015,314.739ZM161.05,314.886C160.814,325.791 162.651,333.626 166.559,338.391C170.468,343.156 175.874,345.539 182.778,345.539C189.877,345.539 195.422,343.205 199.412,338.539C203.403,333.872 205.529,325.497 205.79,313.412C206.009,303.244 204.14,295.814 200.181,291.123C196.223,286.432 190.767,284.086 183.814,284.086C177.153,284.086 171.753,286.468 167.614,291.233C163.476,295.998 161.288,303.882 161.05,314.886Z" style="fill:white;fill-opacity:0.6;fill-rule:nonzero;"/>
        </g>
    </g>
</svg>
