<?xml version="1.0" encoding="UTF-8" standalone="no"?>
<!DOCTYPE svg PUBLIC "-//W3C//DTD SVG 1.1//EN" "http://www.w3.org/Graphics/SVG/1.1/DTD/svg11.dtd">
<svg width="100%" height="100%" viewBox="0 0 363 74" version="1.1" xmlns="http://www.w3.org/2000/svg" xmlns:xlink="http://www.w3.org/1999/xlink" xml:space="preserve" xmlns:serif="http://www.serif.com/" style="fill-rule:evenodd;clip-rule:evenodd;stroke-linejoin:round;stroke-miterlimit:2;">
    <g id="OP-text" transform="matrix(6.44786,0,0,6.44786,-4338.22,-1274.68)">
        <g transform="matrix(7.92,0,-0.209461,12,687.95,206.566)">
            <path d="M0.045,-0.357C0.045,-0.474 0.078,-0.565 0.143,-0.63C0.208,-0.695 0.299,-0.728 0.415,-0.728C0.534,-0.728 0.626,-0.696 0.69,-0.632C0.755,-0.568 0.787,-0.479 0.787,-0.363C0.787,-0.28 0.773,-0.211 0.745,-0.157C0.717,-0.104 0.676,-0.062 0.623,-0.032C0.57,-0.003 0.503,0.012 0.424,0.012C0.343,0.012 0.276,-0.001 0.223,-0.026C0.17,-0.052 0.128,-0.093 0.095,-0.148C0.062,-0.204 0.045,-0.274 0.045,-0.357ZM0.267,-0.356C0.267,-0.284 0.28,-0.232 0.307,-0.201C0.334,-0.169 0.37,-0.153 0.417,-0.153C0.464,-0.153 0.501,-0.169 0.527,-0.2C0.553,-0.231 0.566,-0.286 0.566,-0.366C0.566,-0.434 0.552,-0.483 0.525,-0.514C0.498,-0.545 0.461,-0.561 0.415,-0.561C0.37,-0.561 0.334,-0.545 0.307,-0.513C0.28,-0.482 0.267,-0.429 0.267,-0.356Z" style="fill:white;fill-opacity:0.65;fill-rule:nonzero;"/>
        </g>
        <g transform="matrix(7.92,0,-0.209461,12,694.31,206.566)">
            <path d="M0.06,-0.519L0.245,-0.519L0.245,-0.434C0.273,-0.469 0.301,-0.493 0.329,-0.508C0.357,-0.523 0.392,-0.53 0.433,-0.53C0.488,-0.53 0.531,-0.514 0.562,-0.481C0.593,-0.448 0.608,-0.398 0.608,-0.33L0.608,-0L0.409,-0L0.409,-0.285C0.409,-0.318 0.403,-0.341 0.391,-0.354C0.379,-0.368 0.362,-0.375 0.34,-0.375C0.316,-0.375 0.296,-0.365 0.281,-0.347C0.266,-0.329 0.259,-0.296 0.259,-0.249L0.259,-0L0.06,-0L0.06,-0.519Z" style="fill:white;fill-opacity:0.65;fill-rule:nonzero;"/>
        </g>
        <g transform="matrix(7.92,0,-0.209461,12,699.355,206.566)">
            <rect x="0.067" y="-0.716" width="0.199" height="0.716" style="fill:white;fill-opacity:0.65;fill-rule:nonzero;"/>
        </g>
        <g transform="matrix(7.92,0,-0.209461,12,701.96,206.566)">
            <path d="M0.003,-0.519L0.213,-0.519L0.32,-0.173L0.419,-0.519L0.615,-0.519L0.409,0.036C0.386,0.099 0.362,0.141 0.337,0.164C0.303,0.195 0.25,0.21 0.18,0.21C0.151,0.21 0.107,0.207 0.047,0.199L0.031,0.06C0.06,0.069 0.092,0.074 0.127,0.074C0.15,0.074 0.169,0.068 0.184,0.058C0.198,0.047 0.21,0.028 0.221,-0L0.003,-0.519Z" style="fill:white;fill-opacity:0.65;fill-rule:nonzero;"/>
        </g>
        <g transform="matrix(7.92,0,-0.209461,12,708.964,206.566)">
            <path d="M0.072,-0.716L0.44,-0.716C0.52,-0.716 0.58,-0.697 0.62,-0.659C0.66,-0.621 0.68,-0.566 0.68,-0.496C0.68,-0.424 0.658,-0.367 0.615,-0.327C0.571,-0.286 0.505,-0.266 0.416,-0.266L0.294,-0.266L0.294,-0L0.072,-0L0.072,-0.716ZM0.294,-0.411L0.349,-0.411C0.391,-0.411 0.421,-0.418 0.438,-0.433C0.456,-0.448 0.464,-0.467 0.464,-0.49C0.464,-0.512 0.457,-0.531 0.442,-0.547C0.427,-0.563 0.399,-0.57 0.357,-0.57L0.294,-0.57L0.294,-0.411Z" style="fill:white;fill-rule:nonzero;"/>
        </g>
        <g transform="matrix(7.92,0,-0.209461,12,714.241,206.566)">
            <path d="M0.241,-0.351L0.051,-0.371C0.058,-0.404 0.069,-0.43 0.082,-0.449C0.096,-0.468 0.115,-0.485 0.141,-0.499C0.159,-0.509 0.184,-0.516 0.216,-0.522C0.248,-0.528 0.282,-0.53 0.319,-0.53C0.379,-0.53 0.427,-0.527 0.463,-0.52C0.499,-0.514 0.529,-0.5 0.553,-0.479C0.57,-0.464 0.583,-0.443 0.593,-0.416C0.603,-0.389 0.608,-0.364 0.608,-0.339L0.608,-0.11C0.608,-0.086 0.609,-0.067 0.613,-0.053C0.616,-0.039 0.622,-0.021 0.633,-0L0.446,-0C0.439,-0.013 0.434,-0.024 0.432,-0.031C0.429,-0.038 0.427,-0.049 0.425,-0.063C0.399,-0.038 0.373,-0.021 0.347,-0.01C0.312,0.005 0.271,0.012 0.225,0.012C0.163,0.012 0.116,-0.003 0.084,-0.031C0.052,-0.06 0.036,-0.095 0.036,-0.137C0.036,-0.177 0.047,-0.209 0.07,-0.234C0.093,-0.26 0.136,-0.279 0.198,-0.291C0.273,-0.306 0.321,-0.316 0.343,-0.323C0.365,-0.329 0.389,-0.336 0.414,-0.346C0.414,-0.371 0.409,-0.388 0.398,-0.397C0.388,-0.407 0.371,-0.412 0.345,-0.412C0.313,-0.412 0.288,-0.407 0.272,-0.396C0.259,-0.388 0.249,-0.373 0.241,-0.351ZM0.414,-0.246C0.386,-0.236 0.358,-0.228 0.328,-0.22C0.288,-0.209 0.262,-0.199 0.251,-0.188C0.24,-0.178 0.235,-0.166 0.235,-0.152C0.235,-0.136 0.24,-0.123 0.251,-0.114C0.262,-0.104 0.278,-0.099 0.299,-0.099C0.321,-0.099 0.342,-0.104 0.361,-0.115C0.38,-0.125 0.394,-0.139 0.402,-0.154C0.41,-0.17 0.414,-0.19 0.414,-0.214L0.414,-0.246Z" style="fill:white;fill-rule:nonzero;"/>
        </g>
        <g transform="matrix(7.92,0,-0.209461,12,719.286,206.566)">
            <path d="M0.06,-0.519L0.245,-0.519L0.245,-0.434C0.273,-0.469 0.301,-0.493 0.329,-0.508C0.357,-0.523 0.392,-0.53 0.433,-0.53C0.488,-0.53 0.531,-0.514 0.562,-0.481C0.593,-0.448 0.608,-0.398 0.608,-0.33L0.608,-0L0.409,-0L0.409,-0.285C0.409,-0.318 0.403,-0.341 0.391,-0.354C0.379,-0.368 0.362,-0.375 0.34,-0.375C0.316,-0.375 0.296,-0.365 0.281,-0.347C0.266,-0.329 0.259,-0.296 0.259,-0.249L0.259,-0L0.06,-0L0.06,-0.519Z" style="fill:white;fill-rule:nonzero;"/>
        </g>
        <g transform="matrix(7.92,0,-0.209461,12,724.331,206.566)">
            <path d="M0.025,-0.144L0.222,-0.163C0.23,-0.139 0.242,-0.122 0.256,-0.112C0.271,-0.102 0.291,-0.097 0.315,-0.097C0.342,-0.097 0.362,-0.103 0.377,-0.114C0.388,-0.123 0.394,-0.133 0.394,-0.146C0.394,-0.16 0.387,-0.171 0.372,-0.179C0.361,-0.185 0.332,-0.191 0.286,-0.2C0.217,-0.212 0.169,-0.223 0.142,-0.233C0.115,-0.243 0.093,-0.261 0.074,-0.285C0.056,-0.309 0.047,-0.337 0.047,-0.368C0.047,-0.402 0.057,-0.432 0.077,-0.457C0.097,-0.481 0.124,-0.5 0.159,-0.512C0.194,-0.524 0.24,-0.53 0.299,-0.53C0.361,-0.53 0.406,-0.526 0.436,-0.516C0.465,-0.507 0.49,-0.492 0.51,-0.472C0.529,-0.452 0.546,-0.425 0.559,-0.392L0.37,-0.373C0.365,-0.39 0.357,-0.402 0.346,-0.41C0.33,-0.42 0.311,-0.425 0.289,-0.425C0.267,-0.425 0.25,-0.421 0.24,-0.413C0.23,-0.405 0.225,-0.396 0.225,-0.384C0.225,-0.372 0.231,-0.362 0.244,-0.356C0.257,-0.349 0.285,-0.343 0.329,-0.338C0.395,-0.331 0.444,-0.32 0.477,-0.307C0.509,-0.293 0.533,-0.274 0.551,-0.25C0.568,-0.225 0.576,-0.198 0.576,-0.168C0.576,-0.138 0.567,-0.109 0.549,-0.081C0.531,-0.053 0.503,-0.03 0.464,-0.013C0.425,0.003 0.372,0.012 0.305,0.012C0.21,0.012 0.142,-0.002 0.102,-0.029C0.062,-0.056 0.036,-0.094 0.025,-0.144Z" style="fill:white;fill-rule:nonzero;"/>
        </g>
    </g>
    <g id="OP-logo" transform="matrix(0.372921,0,0,0.372921,-47.731,-96.5166)">
        <g id="P-curve" transform="matrix(1,0,0,0.979223,-0.816377,8.05947)">
            <path d="M337.839,346.864L337.839,388.959C337.839,398.127 333.733,404.936 325.523,409.386C317.312,413.836 305.628,415.955 290.47,415.742C274.891,415.523 262.716,412.864 253.944,407.766C245.172,402.667 240.786,395.012 240.786,384.801L240.786,370.937L183.523,370.132L183.523,344.697L337.839,346.864ZM272.049,371.376L272.049,377.581C272.049,382.463 273.646,385.914 276.839,387.934C280.032,389.954 284.119,390.999 289.102,391.069C293.944,391.137 298.049,390.338 301.418,388.671C304.786,387.004 306.47,383.804 306.47,379.071L306.47,371.859L272.049,371.376Z" style="fill:white;fill-rule:nonzero;"/>
        </g>
        <path id="O-curve" d="M128.015,314.739C128.395,297.104 133.554,283.374 143.491,273.549C153.427,263.725 167.075,258.812 184.433,258.812C202.228,258.812 215.835,263.639 225.254,273.291C234.673,282.944 239.194,296.465 238.819,313.854C238.546,326.479 236.22,336.832 231.839,344.912C227.459,352.993 221.246,359.281 213.199,363.776C205.152,368.27 195.197,370.518 183.333,370.518C171.275,370.518 161.337,368.577 153.52,364.697C145.702,360.816 139.429,354.675 134.7,346.275C129.97,337.875 127.742,327.363 128.015,314.739ZM161.05,314.886C160.814,325.791 162.651,333.626 166.559,338.391C170.468,343.156 175.874,345.539 182.778,345.539C189.877,345.539 195.422,343.205 199.412,338.539C203.403,333.872 205.529,325.497 205.79,313.412C206.009,303.244 204.14,295.814 200.181,291.123C196.223,286.432 190.767,284.086 183.814,284.086C177.153,284.086 171.753,286.468 167.614,291.233C163.476,295.998 161.288,303.882 161.05,314.886Z" style="fill:white;fill-opacity:0.6;fill-rule:nonzero;"/>
    </g>
</svg>
